<svg width="1127" height="1056" viewBox="0 0 1127 1056" fill="none" xmlns="http://www.w3.org/2000/svg">
<g filter="url(#filter0_f_1_14)">
<path d="M892.698 551.854C932.882 581.165 926.585 599.677 873.805 607.39C821.026 615.103 789.538 628.216 779.342 646.728C769.146 665.24 758.65 686.838 747.854 711.521C737.058 736.203 722.663 766.028 704.67 800.996C686.677 835.963 659.688 854.218 623.702 855.761C587.716 857.303 553.529 851.39 521.141 838.02C488.754 824.65 468.062 797.139 459.065 755.487C450.069 713.835 426.378 696.351 387.993 703.036C349.607 709.721 317.82 704.836 292.629 688.38C267.439 671.925 252.145 650.328 246.747 623.588C241.349 596.848 228.454 570.88 208.062 545.683C187.67 520.486 205.963 499.403 262.941 482.433C319.919 465.464 351.707 448.752 358.304 432.296C364.901 415.841 350.507 380.36 315.121 325.852C279.734 271.344 285.432 246.918 332.214 252.575C378.996 258.231 419.48 268.002 453.667 281.886C487.854 295.77 515.743 298.598 537.335 290.37C558.927 282.143 585.616 265.431 617.404 240.233C649.192 215.036 683.978 201.667 721.764 200.124C759.549 198.581 788.038 211.437 807.231 238.691C826.423 265.945 853.413 287.028 888.2 301.94C922.986 316.853 934.382 342.05 922.386 377.532C910.391 413.013 892.398 443.609 868.407 469.321C844.416 495.032 852.513 522.543 892.698 551.854Z" fill="#262626"/>
</g>
<defs>
<filter id="filter0_f_1_14" x="0" y="0" width="1127" height="1056" filterUnits="userSpaceOnUse" color-interpolation-filters="sRGB">
<feFlood flood-opacity="0" result="BackgroundImageFix"/>
<feBlend mode="normal" in="SourceGraphic" in2="BackgroundImageFix" result="shape"/>
<feGaussianBlur stdDeviation="100" result="effect1_foregroundBlur_1_14"/>
</filter>
</defs>
</svg>
