<svg width="1237" height="1116" viewBox="0 0 1237 1116" fill="none" xmlns="http://www.w3.org/2000/svg">
<g filter="url(#filter0_f_1_11)">
<path d="M776.263 842.387C730.114 820.803 697.735 832.828 679.125 878.463C660.515 924.097 638.381 927.738 612.725 889.387C587.068 851.035 559.813 838.2 530.962 850.882C502.11 863.564 463.313 880.604 414.57 902.002C365.827 923.399 339.794 913.782 336.471 873.148C333.149 832.515 314.684 804.471 281.076 789.016C247.468 773.561 247.042 745.455 279.797 704.695C312.552 663.936 310.686 630.128 274.2 603.272C237.713 576.415 214.197 542.458 203.653 501.4C193.108 460.342 210.318 429.453 255.284 408.732C300.249 388.011 340.133 371.259 374.936 358.478C409.739 345.696 445.632 345.335 482.616 357.394C519.6 369.453 545.922 338.649 561.581 264.984C577.24 191.319 599.456 181.168 628.227 234.53C656.998 287.892 684.272 313.982 710.051 312.802C735.83 311.621 761.309 314.467 786.488 321.338C811.668 328.21 849.099 328.164 898.783 321.2C948.467 314.235 967.949 332.005 957.229 374.508C946.508 417.012 960.611 448.844 999.537 470.003C1038.46 491.162 1046.38 519.484 1023.29 554.97C1000.19 590.456 984.738 624.145 976.923 656.036C969.109 687.927 955.492 717.904 936.074 745.968C916.657 774.032 896.704 802.513 876.216 831.413C855.729 860.312 822.411 863.97 776.263 842.387Z" fill="#727272"/>
</g>
<defs>
<filter id="filter0_f_1_11" x="0.648071" y="0.90506" width="1235.54" height="1114.75" filterUnits="userSpaceOnUse" color-interpolation-filters="sRGB">
<feFlood flood-opacity="0" result="BackgroundImageFix"/>
<feBlend mode="normal" in="SourceGraphic" in2="BackgroundImageFix" result="shape"/>
<feGaussianBlur stdDeviation="100" result="effect1_foregroundBlur_1_11"/>
</filter>
</defs>
</svg>
