<svg width="908" height="1048" viewBox="0 0 908 1048" fill="none" xmlns="http://www.w3.org/2000/svg">
<g filter="url(#filter0_f_1_17)">
<path d="M656.862 545.381C681.625 571.654 677.744 588.247 645.22 595.161C612.695 602.074 593.291 613.828 587.008 630.421C580.725 647.014 574.257 666.373 567.604 688.497C560.952 710.621 552.081 737.355 540.994 768.697C529.906 800.04 513.274 816.403 491.098 817.785C468.922 819.168 447.855 813.868 427.897 801.884C407.939 789.9 395.188 765.24 389.644 727.906C384.1 690.571 369.501 674.9 345.847 680.892C322.193 686.884 302.604 682.505 287.081 667.756C271.558 653.006 262.133 633.647 258.807 609.68C255.481 585.712 247.534 562.435 234.968 539.85C222.402 517.265 233.674 498.367 268.786 483.157C303.898 467.946 323.486 452.966 327.552 438.217C331.617 423.467 322.747 391.664 300.941 342.806C279.135 293.949 282.646 272.055 311.474 277.125C340.303 282.195 365.251 290.953 386.318 303.398C407.385 315.842 424.571 318.377 437.876 311.003C451.182 303.628 467.629 288.648 487.217 266.063C506.806 243.478 528.243 231.494 551.527 230.111C574.812 228.728 592.367 240.251 604.195 264.68C616.022 289.109 632.653 308.007 654.09 321.373C675.527 334.74 682.549 357.325 675.157 389.129C667.765 420.932 656.677 448.357 641.893 471.403C627.109 494.449 632.099 519.109 656.862 545.381Z" fill="#F70000"/>
</g>
<defs>
<filter id="filter0_f_1_17" x="0" y="0" width="908" height="1048" filterUnits="userSpaceOnUse" color-interpolation-filters="sRGB">
<feFlood flood-opacity="0" result="BackgroundImageFix"/>
<feBlend mode="normal" in="SourceGraphic" in2="BackgroundImageFix" result="shape"/>
<feGaussianBlur stdDeviation="115" result="effect1_foregroundBlur_1_17"/>
</filter>
</defs>
</svg>
