<svg viewBox="0 0 200 200" xmlns="http://www.w3.org/2000/svg">
  <path fill="#F2F4F8" d="M26.1,-52.3C32.1,-41.8,33.8,-31.2,38.8,-22.4C43.8,-13.7,52,-6.9,52.1,0.1C52.3,7.1,44.5,14.1,39.9,23.5C35.3,33,34,44.7,27.8,47.9C21.7,51.2,10.9,45.9,0.7,44.7C-9.5,43.5,-19,46.4,-29.9,45.9C-40.9,45.5,-53.3,41.7,-64.1,33.5C-74.9,25.3,-84.1,12.6,-86.8,-1.5C-89.4,-15.7,-85.6,-31.4,-74,-38.3C-62.4,-45.1,-43,-43.1,-29.4,-49.2C-15.8,-55.3,-7.9,-69.5,1.1,-71.4C10.1,-73.3,20.2,-62.9,26.1,-52.3Z" transform="translate(100 100)" />
</svg>
