<svg width="1042" height="1046" viewBox="0 0 1042 1046" fill="none" xmlns="http://www.w3.org/2000/svg">
<g filter="url(#filter0_f_1_8)">
<path d="M811.708 546.49C847.195 575.354 841.633 593.584 795.025 601.18C748.416 608.776 720.61 621.688 711.606 639.918C702.602 658.148 693.333 679.416 683.799 703.723C674.266 728.03 661.554 757.4 645.665 791.834C629.776 826.268 605.942 844.245 574.163 845.764C542.384 847.283 512.195 841.46 483.594 828.294C454.993 815.128 436.72 788.036 428.776 747.019C420.831 706.002 399.91 688.785 366.013 695.368C332.115 701.951 304.044 697.14 281.799 680.936C259.554 664.731 246.048 643.463 241.281 617.131C236.515 590.799 225.127 565.226 207.119 540.413C189.111 515.601 205.266 494.839 255.582 478.128C305.898 461.417 333.969 444.96 339.795 428.755C345.621 412.551 332.91 377.61 301.661 323.933C270.412 270.257 275.444 246.203 316.756 251.773C358.068 257.344 393.819 266.965 424.009 280.637C454.199 294.31 478.827 297.095 497.894 288.993C516.961 280.891 540.531 264.433 568.602 239.62C596.673 214.807 627.392 201.641 660.76 200.122C694.127 198.603 719.286 211.263 736.234 238.101C753.183 264.939 777.017 285.701 807.736 300.387C838.455 315.072 848.519 339.885 837.926 374.825C827.333 409.766 811.444 439.896 790.258 465.215C769.072 490.534 776.222 517.626 811.708 546.49Z" fill="#FF0000"/>
</g>
<defs>
<filter id="filter0_f_1_8" x="0" y="0" width="1042" height="1046" filterUnits="userSpaceOnUse" color-interpolation-filters="sRGB">
<feFlood flood-opacity="0" result="BackgroundImageFix"/>
<feBlend mode="normal" in="SourceGraphic" in2="BackgroundImageFix" result="shape"/>
<feGaussianBlur stdDeviation="100" result="effect1_foregroundBlur_1_8"/>
</filter>
</defs>
</svg>
