<svg width="724" height="728" viewBox="0 0 724 728" fill="none" xmlns="http://www.w3.org/2000/svg">
<g filter="url(#filter0_f_1_23)">
<path d="M584.546 393.644C567.702 423.081 549.961 447.762 531.325 467.689C512.688 487.615 496.023 506.636 481.329 524.75C466.635 542.865 451.044 561.207 434.558 579.774C418.072 598.342 398.719 599.927 376.499 584.53C354.278 569.132 332.416 567.773 310.913 580.454C289.409 593.134 272.565 587.02 260.379 562.112C248.194 537.204 236.008 516.599 223.823 500.295C211.638 483.992 190.851 470.179 161.463 458.858C132.074 447.536 125.444 426.477 141.572 395.682C157.7 364.886 159.133 334.544 145.873 304.654C132.612 274.765 137.271 251.895 159.85 236.044C182.429 220.194 198.736 200.494 208.771 176.944C218.806 153.395 234.575 140.715 256.078 138.903C277.582 137.092 297.473 145.923 315.751 165.396C334.029 184.87 349.44 195.965 361.984 198.682C374.527 201.4 396.748 188.493 428.645 159.962C460.542 131.431 487.242 125.543 508.746 142.3C530.249 159.056 527.92 189.625 501.757 234.006C475.594 278.388 487.063 308.73 536.163 325.034C585.263 341.337 601.39 364.207 584.546 393.644Z" fill="#666666"/>
</g>
<defs>
<filter id="filter0_f_1_23" x="0" y="0" width="724" height="728" filterUnits="userSpaceOnUse" color-interpolation-filters="sRGB">
<feFlood flood-opacity="0" result="BackgroundImageFix"/>
<feBlend mode="normal" in="SourceGraphic" in2="BackgroundImageFix" result="shape"/>
<feGaussianBlur stdDeviation="66.5" result="effect1_foregroundBlur_1_23"/>
</filter>
</defs>
</svg>
